# xmcd
#
# Track frame offsets: 
#        150
#        6596
#        24518
#        64259
#        82719
#        86206
#        106537
#        129595
#        142510
#        145384
#        165548
#        169012
#        191795
#
# Disc length: 3193 seconds
#
# Revision: 0
# Processed by: cddbd v1.5.2PL0 Copyright (c) Steve Scherf et al.
# Submitted via: ExactAudioCopy v0.99pb5
#
DISCID=a30c770d
DTITLE=Infernal Noise Brigade - Vamos a la Playa
DYEAR=2003
DGENRE=Big Band
TTITLE0=Introduccion
TTITLE1=Praha
TTITLE2=Goat Eyes
TTITLE3=Ou est la Liberte
TTITLE4=Down Down WTO
TTITLE5=Kyoto Discord
TTITLE6=Nagarawallah
TTITLE7=Ja Helo
TTITLE8=km Cero (i)
TTITLE9=Hamaq
TTITLE10=km Cero (ii)
TTITLE11=Bloco Fogo
TTITLE12=La Andina
EXTD=
EXTT0=
EXTT1=
EXTT2=
EXTT3=
EXTT4=
EXTT5=
EXTT6=
EXTT7=
EXTT8=
EXTT9=
EXTT10=
EXTT11=
EXTT12=
PLAYORDER=
